<mxfile host="app.diagrams.net" agent="Mozilla/5.0 (Windows NT 10.0; Win64; x64) AppleWebKit/537.36 (KHTML, like Gecko) Chrome/138.0.0.0 Safari/537.36" version="27.2.0">
  <diagram id="C5RBs43oDa-KdzZeNtuy" name="Page-1">
    <mxGraphModel dx="2253" dy="785" grid="1" gridSize="10" guides="1" tooltips="1" connect="1" arrows="1" fold="1" page="1" pageScale="1" pageWidth="827" pageHeight="1169" math="0" shadow="0">
      <root>
        <mxCell id="WIyWlLk6GJQsqaUBKTNV-0" />
        <mxCell id="WIyWlLk6GJQsqaUBKTNV-1" parent="WIyWlLk6GJQsqaUBKTNV-0" />
        <mxCell id="M7CGMbNuYNeq0SnUNNgH-6" value="ทบทวนสัญลักษณ์" style="swimlane;fontFamily=Sarabun;fontSource=https%3A%2F%2Ffonts.googleapis.com%2Fcss%3Ffamily%3DSarabun;" parent="WIyWlLk6GJQsqaUBKTNV-1" vertex="1">
          <mxGeometry x="-720" y="20" width="640" height="290" as="geometry" />
        </mxCell>
        <mxCell id="M7CGMbNuYNeq0SnUNNgH-2" value="&lt;font data-font-src=&quot;https://fonts.googleapis.com/css?family=Sarabun&quot; face=&quot;Sarabun&quot;&gt;เริ่มต้น&lt;/font&gt;" style="ellipse;whiteSpace=wrap;html=1;" parent="M7CGMbNuYNeq0SnUNNgH-6" vertex="1">
          <mxGeometry x="20" y="40" width="130" height="30" as="geometry" />
        </mxCell>
        <mxCell id="M7CGMbNuYNeq0SnUNNgH-5" value="" style="endArrow=classic;html=1;rounded=0;" parent="M7CGMbNuYNeq0SnUNNgH-6" edge="1">
          <mxGeometry width="50" height="50" relative="1" as="geometry">
            <mxPoint x="84.5" y="70" as="sourcePoint" />
            <mxPoint x="84.5" y="120" as="targetPoint" />
          </mxGeometry>
        </mxCell>
        <mxCell id="M7CGMbNuYNeq0SnUNNgH-3" value="&lt;font face=&quot;Sarabun&quot;&gt;สิ้นสุด&lt;/font&gt;" style="ellipse;whiteSpace=wrap;html=1;" parent="M7CGMbNuYNeq0SnUNNgH-6" vertex="1">
          <mxGeometry x="150" y="90" width="130" height="30" as="geometry" />
        </mxCell>
        <mxCell id="M7CGMbNuYNeq0SnUNNgH-4" value="" style="endArrow=classic;html=1;rounded=0;" parent="M7CGMbNuYNeq0SnUNNgH-6" edge="1">
          <mxGeometry width="50" height="50" relative="1" as="geometry">
            <mxPoint x="214.5" y="40" as="sourcePoint" />
            <mxPoint x="214.5" y="90" as="targetPoint" />
          </mxGeometry>
        </mxCell>
        <mxCell id="mvioNwK95yMqdUQ73LqQ-0" value="กระบวนการ" style="rounded=0;whiteSpace=wrap;html=1;fontFamily=Sarabun;fontSource=https%3A%2F%2Ffonts.googleapis.com%2Fcss%3Ffamily%3DSarabun;" parent="M7CGMbNuYNeq0SnUNNgH-6" vertex="1">
          <mxGeometry x="320" y="70" width="120" height="30" as="geometry" />
        </mxCell>
        <mxCell id="mvioNwK95yMqdUQ73LqQ-1" value="" style="endArrow=classic;html=1;rounded=0;" parent="M7CGMbNuYNeq0SnUNNgH-6" edge="1">
          <mxGeometry width="50" height="50" relative="1" as="geometry">
            <mxPoint x="379" y="40" as="sourcePoint" />
            <mxPoint x="379.5" y="70" as="targetPoint" />
          </mxGeometry>
        </mxCell>
        <mxCell id="mvioNwK95yMqdUQ73LqQ-2" value="" style="endArrow=classic;html=1;rounded=0;" parent="M7CGMbNuYNeq0SnUNNgH-6" edge="1">
          <mxGeometry width="50" height="50" relative="1" as="geometry">
            <mxPoint x="379.75" y="100" as="sourcePoint" />
            <mxPoint x="380.25" y="130" as="targetPoint" />
          </mxGeometry>
        </mxCell>
        <mxCell id="mvioNwK95yMqdUQ73LqQ-3" value="ประโยคเงื่อนไข" style="rhombus;whiteSpace=wrap;html=1;fontFamily=Sarabun;fontSource=https%3A%2F%2Ffonts.googleapis.com%2Fcss%3Ffamily%3DSarabun;" parent="M7CGMbNuYNeq0SnUNNgH-6" vertex="1">
          <mxGeometry x="490" y="60" width="100" height="60" as="geometry" />
        </mxCell>
        <mxCell id="mvioNwK95yMqdUQ73LqQ-4" value="" style="endArrow=classic;html=1;rounded=0;" parent="M7CGMbNuYNeq0SnUNNgH-6" edge="1">
          <mxGeometry width="50" height="50" relative="1" as="geometry">
            <mxPoint x="539.71" y="30" as="sourcePoint" />
            <mxPoint x="540.21" y="60" as="targetPoint" />
          </mxGeometry>
        </mxCell>
        <mxCell id="mvioNwK95yMqdUQ73LqQ-5" value="" style="endArrow=classic;html=1;rounded=0;" parent="M7CGMbNuYNeq0SnUNNgH-6" edge="1">
          <mxGeometry width="50" height="50" relative="1" as="geometry">
            <mxPoint x="539.71" y="120" as="sourcePoint" />
            <mxPoint x="540" y="175" as="targetPoint" />
          </mxGeometry>
        </mxCell>
        <mxCell id="mvioNwK95yMqdUQ73LqQ-7" value="จริง" style="edgeLabel;html=1;align=center;verticalAlign=middle;resizable=0;points=[];fontFamily=Sarabun;fontSource=https%3A%2F%2Ffonts.googleapis.com%2Fcss%3Ffamily%3DSarabun;" parent="mvioNwK95yMqdUQ73LqQ-5" vertex="1" connectable="0">
          <mxGeometry x="-0.4142" y="-1" relative="1" as="geometry">
            <mxPoint as="offset" />
          </mxGeometry>
        </mxCell>
        <mxCell id="mvioNwK95yMqdUQ73LqQ-6" value="" style="endArrow=classic;html=1;rounded=0;exitX=1;exitY=0.5;exitDx=0;exitDy=0;" parent="M7CGMbNuYNeq0SnUNNgH-6" source="mvioNwK95yMqdUQ73LqQ-3" edge="1">
          <mxGeometry width="50" height="50" relative="1" as="geometry">
            <mxPoint x="620" y="95" as="sourcePoint" />
            <mxPoint x="610" y="175" as="targetPoint" />
            <Array as="points">
              <mxPoint x="610" y="90" />
            </Array>
          </mxGeometry>
        </mxCell>
        <mxCell id="mvioNwK95yMqdUQ73LqQ-8" value="&lt;font data-font-src=&quot;https://fonts.googleapis.com/css?family=Sarabun&quot; face=&quot;Sarabun&quot;&gt;เท็จ&lt;/font&gt;" style="edgeLabel;html=1;align=center;verticalAlign=middle;resizable=0;points=[];" parent="mvioNwK95yMqdUQ73LqQ-6" vertex="1" connectable="0">
          <mxGeometry x="-0.0019" y="-2" relative="1" as="geometry">
            <mxPoint as="offset" />
          </mxGeometry>
        </mxCell>
        <mxCell id="mvioNwK95yMqdUQ73LqQ-9" value="&lt;font data-font-src=&quot;https://fonts.googleapis.com/css?family=Sarabun&quot; face=&quot;Sarabun&quot;&gt;ฟังก์ชัน/โมดูล&lt;/font&gt;" style="shape=process;whiteSpace=wrap;html=1;backgroundOutline=1;" parent="M7CGMbNuYNeq0SnUNNgH-6" vertex="1">
          <mxGeometry x="25" y="180" width="120" height="30" as="geometry" />
        </mxCell>
        <mxCell id="mvioNwK95yMqdUQ73LqQ-11" value="" style="endArrow=classic;html=1;rounded=0;" parent="M7CGMbNuYNeq0SnUNNgH-6" edge="1">
          <mxGeometry width="50" height="50" relative="1" as="geometry">
            <mxPoint x="84.70999999999998" y="150" as="sourcePoint" />
            <mxPoint x="85.20999999999998" y="180" as="targetPoint" />
          </mxGeometry>
        </mxCell>
        <mxCell id="mvioNwK95yMqdUQ73LqQ-12" value="" style="endArrow=classic;html=1;rounded=0;" parent="M7CGMbNuYNeq0SnUNNgH-6" edge="1">
          <mxGeometry width="50" height="50" relative="1" as="geometry">
            <mxPoint x="84.70999999999998" y="210" as="sourcePoint" />
            <mxPoint x="85.20999999999998" y="240" as="targetPoint" />
          </mxGeometry>
        </mxCell>
        <mxCell id="mvioNwK95yMqdUQ73LqQ-13" value="" style="strokeWidth=2;html=1;shape=mxgraph.flowchart.start_2;whiteSpace=wrap;" parent="M7CGMbNuYNeq0SnUNNgH-6" vertex="1">
          <mxGeometry x="205" y="185" width="20" height="20" as="geometry" />
        </mxCell>
        <mxCell id="mvioNwK95yMqdUQ73LqQ-16" value="" style="endArrow=classic;html=1;rounded=0;" parent="M7CGMbNuYNeq0SnUNNgH-6" edge="1">
          <mxGeometry width="50" height="50" relative="1" as="geometry">
            <mxPoint x="214.70999999999998" y="155" as="sourcePoint" />
            <mxPoint x="215.20999999999998" y="185" as="targetPoint" />
          </mxGeometry>
        </mxCell>
        <mxCell id="mvioNwK95yMqdUQ73LqQ-17" value="" style="endArrow=classic;html=1;rounded=0;entryX=0;entryY=0.5;entryDx=0;entryDy=0;entryPerimeter=0;" parent="M7CGMbNuYNeq0SnUNNgH-6" target="mvioNwK95yMqdUQ73LqQ-13" edge="1">
          <mxGeometry width="50" height="50" relative="1" as="geometry">
            <mxPoint x="189.99999999999997" y="155" as="sourcePoint" />
            <mxPoint x="190.49999999999997" y="185" as="targetPoint" />
            <Array as="points">
              <mxPoint x="190" y="180" />
            </Array>
          </mxGeometry>
        </mxCell>
        <mxCell id="mvioNwK95yMqdUQ73LqQ-18" value="" style="endArrow=classic;html=1;rounded=0;entryX=1;entryY=0.5;entryDx=0;entryDy=0;entryPerimeter=0;" parent="M7CGMbNuYNeq0SnUNNgH-6" target="mvioNwK95yMqdUQ73LqQ-13" edge="1">
          <mxGeometry width="50" height="50" relative="1" as="geometry">
            <mxPoint x="239.99999999999997" y="155" as="sourcePoint" />
            <mxPoint x="240.49999999999997" y="185" as="targetPoint" />
            <Array as="points">
              <mxPoint x="240" y="180" />
            </Array>
          </mxGeometry>
        </mxCell>
        <mxCell id="mvioNwK95yMqdUQ73LqQ-19" value="" style="endArrow=classic;html=1;rounded=0;" parent="M7CGMbNuYNeq0SnUNNgH-6" edge="1">
          <mxGeometry width="50" height="50" relative="1" as="geometry">
            <mxPoint x="214.70999999999998" y="205" as="sourcePoint" />
            <mxPoint x="215.20999999999998" y="235" as="targetPoint" />
          </mxGeometry>
        </mxCell>
        <mxCell id="mvioNwK95yMqdUQ73LqQ-20" value="&lt;font data-font-src=&quot;https://fonts.googleapis.com/css?family=Sarabun&quot; face=&quot;Sarabun&quot;&gt;ตัวเชื่อม&lt;/font&gt;" style="text;html=1;align=center;verticalAlign=middle;resizable=0;points=[];autosize=1;strokeColor=none;fillColor=none;" parent="M7CGMbNuYNeq0SnUNNgH-6" vertex="1">
          <mxGeometry x="220" y="190" width="60" height="30" as="geometry" />
        </mxCell>
        <mxCell id="mvioNwK95yMqdUQ73LqQ-25" value="" style="endArrow=classic;html=1;rounded=0;" parent="M7CGMbNuYNeq0SnUNNgH-6" edge="1">
          <mxGeometry width="50" height="50" relative="1" as="geometry">
            <mxPoint x="353.71" y="165" as="sourcePoint" />
            <mxPoint x="354.21" y="195" as="targetPoint" />
          </mxGeometry>
        </mxCell>
        <mxCell id="mvioNwK95yMqdUQ73LqQ-21" value="" style="verticalLabelPosition=bottom;verticalAlign=top;html=1;shape=offPageConnector;rounded=0;size=0.5;" parent="M7CGMbNuYNeq0SnUNNgH-6" vertex="1">
          <mxGeometry x="339" y="195" width="30" height="30" as="geometry" />
        </mxCell>
        <mxCell id="mvioNwK95yMqdUQ73LqQ-26" value="" style="endArrow=classic;html=1;rounded=0;" parent="M7CGMbNuYNeq0SnUNNgH-6" edge="1">
          <mxGeometry width="50" height="50" relative="1" as="geometry">
            <mxPoint x="405.71" y="195" as="sourcePoint" />
            <mxPoint x="406.21" y="225" as="targetPoint" />
          </mxGeometry>
        </mxCell>
        <mxCell id="mvioNwK95yMqdUQ73LqQ-27" value="" style="verticalLabelPosition=bottom;verticalAlign=top;html=1;shape=offPageConnector;rounded=0;size=0.5;" parent="M7CGMbNuYNeq0SnUNNgH-6" vertex="1">
          <mxGeometry x="391" y="165" width="30" height="30" as="geometry" />
        </mxCell>
        <mxCell id="mvioNwK95yMqdUQ73LqQ-28" value="หน้าต่อไป" style="text;html=1;align=center;verticalAlign=middle;resizable=0;points=[];autosize=1;strokeColor=none;fillColor=none;fontFamily=Sarabun;fontSource=https%3A%2F%2Ffonts.googleapis.com%2Fcss%3Ffamily%3DSarabun;" parent="M7CGMbNuYNeq0SnUNNgH-6" vertex="1">
          <mxGeometry x="345" y="220" width="70" height="30" as="geometry" />
        </mxCell>
        <mxCell id="mvioNwK95yMqdUQ73LqQ-29" value="ก" style="text;html=1;align=center;verticalAlign=middle;resizable=0;points=[];autosize=1;strokeColor=none;fillColor=none;fontFamily=Sarabun;fontSource=https%3A%2F%2Ffonts.googleapis.com%2Fcss%3Ffamily%3DSarabun;" parent="M7CGMbNuYNeq0SnUNNgH-6" vertex="1">
          <mxGeometry x="339" y="190" width="30" height="30" as="geometry" />
        </mxCell>
        <mxCell id="mvioNwK95yMqdUQ73LqQ-30" value="ก" style="text;html=1;align=center;verticalAlign=middle;resizable=0;points=[];autosize=1;strokeColor=none;fillColor=none;fontFamily=Sarabun;fontSource=https%3A%2F%2Ffonts.googleapis.com%2Fcss%3Ffamily%3DSarabun;" parent="M7CGMbNuYNeq0SnUNNgH-6" vertex="1">
          <mxGeometry x="391" y="160" width="30" height="30" as="geometry" />
        </mxCell>
        <mxCell id="mvioNwK95yMqdUQ73LqQ-32" value="แสดงผล/รับค่า" style="shape=parallelogram;perimeter=parallelogramPerimeter;whiteSpace=wrap;html=1;fixedSize=1;fontFamily=Sarabun;fontSource=https%3A%2F%2Ffonts.googleapis.com%2Fcss%3Ffamily%3DSarabun;" parent="M7CGMbNuYNeq0SnUNNgH-6" vertex="1">
          <mxGeometry x="450" y="210" width="120" height="30" as="geometry" />
        </mxCell>
        <mxCell id="mvioNwK95yMqdUQ73LqQ-33" value="" style="endArrow=classic;html=1;rounded=0;" parent="M7CGMbNuYNeq0SnUNNgH-6" edge="1">
          <mxGeometry width="50" height="50" relative="1" as="geometry">
            <mxPoint x="509.71" y="180" as="sourcePoint" />
            <mxPoint x="510.21" y="210" as="targetPoint" />
          </mxGeometry>
        </mxCell>
        <mxCell id="mvioNwK95yMqdUQ73LqQ-34" value="" style="endArrow=classic;html=1;rounded=0;" parent="M7CGMbNuYNeq0SnUNNgH-6" edge="1">
          <mxGeometry width="50" height="50" relative="1" as="geometry">
            <mxPoint x="509.71" y="240" as="sourcePoint" />
            <mxPoint x="510.21" y="270" as="targetPoint" />
          </mxGeometry>
        </mxCell>
        <mxCell id="VMVyXTnRbbtvoCDDoozu-30" style="edgeStyle=orthogonalEdgeStyle;rounded=0;orthogonalLoop=1;jettySize=auto;html=1;exitX=0.145;exitY=0.855;exitDx=0;exitDy=0;exitPerimeter=0;entryX=0;entryY=0.5;entryDx=0;entryDy=0;entryPerimeter=0;" edge="1" parent="M7CGMbNuYNeq0SnUNNgH-6" source="mvioNwK95yMqdUQ73LqQ-13" target="mvioNwK95yMqdUQ73LqQ-13">
          <mxGeometry relative="1" as="geometry" />
        </mxCell>
        <mxCell id="mvioNwK95yMqdUQ73LqQ-36" value="แก้ไขโจทย์ปัญหา" style="swimlane;fontFamily=Sarabun;fontSource=https%3A%2F%2Ffonts.googleapis.com%2Fcss%3Ffamily%3DSarabun;" parent="WIyWlLk6GJQsqaUBKTNV-1" vertex="1">
          <mxGeometry x="-720" y="640" width="640" height="820" as="geometry" />
        </mxCell>
        <mxCell id="VMVyXTnRbbtvoCDDoozu-1" style="edgeStyle=orthogonalEdgeStyle;rounded=0;orthogonalLoop=1;jettySize=auto;html=1;exitX=0.5;exitY=1;exitDx=0;exitDy=0;entryX=0.5;entryY=0;entryDx=0;entryDy=0;" edge="1" parent="mvioNwK95yMqdUQ73LqQ-36" source="mvioNwK95yMqdUQ73LqQ-35" target="VMVyXTnRbbtvoCDDoozu-0">
          <mxGeometry relative="1" as="geometry" />
        </mxCell>
        <mxCell id="mvioNwK95yMqdUQ73LqQ-35" value="&lt;font data-font-src=&quot;https://fonts.googleapis.com/css?family=Sarabun&quot; face=&quot;Sarabun&quot;&gt;เริ่มต้น&lt;/font&gt;" style="ellipse;whiteSpace=wrap;html=1;" parent="mvioNwK95yMqdUQ73LqQ-36" vertex="1">
          <mxGeometry x="255" y="40" width="130" height="30" as="geometry" />
        </mxCell>
        <mxCell id="mvioNwK95yMqdUQ73LqQ-69" value="&lt;font face=&quot;Sarabun&quot;&gt;สิ้นสุด&lt;/font&gt;" style="ellipse;whiteSpace=wrap;html=1;" parent="mvioNwK95yMqdUQ73LqQ-36" vertex="1">
          <mxGeometry x="255" y="770" width="130" height="30" as="geometry" />
        </mxCell>
        <mxCell id="VMVyXTnRbbtvoCDDoozu-4" value="" style="edgeStyle=orthogonalEdgeStyle;rounded=0;orthogonalLoop=1;jettySize=auto;html=1;" edge="1" parent="mvioNwK95yMqdUQ73LqQ-36" source="VMVyXTnRbbtvoCDDoozu-0">
          <mxGeometry relative="1" as="geometry">
            <mxPoint x="320" y="220" as="targetPoint" />
          </mxGeometry>
        </mxCell>
        <mxCell id="VMVyXTnRbbtvoCDDoozu-0" value="input รับเงิน&amp;nbsp;" style="shape=parallelogram;perimeter=parallelogramPerimeter;whiteSpace=wrap;html=1;fixedSize=1;" vertex="1" parent="mvioNwK95yMqdUQ73LqQ-36">
          <mxGeometry x="235" y="120" width="170" height="50" as="geometry" />
        </mxCell>
        <mxCell id="VMVyXTnRbbtvoCDDoozu-139" style="edgeStyle=orthogonalEdgeStyle;rounded=0;orthogonalLoop=1;jettySize=auto;html=1;entryX=0.5;entryY=0;entryDx=0;entryDy=0;" edge="1" parent="mvioNwK95yMqdUQ73LqQ-36" source="VMVyXTnRbbtvoCDDoozu-8" target="VMVyXTnRbbtvoCDDoozu-138">
          <mxGeometry relative="1" as="geometry" />
        </mxCell>
        <mxCell id="VMVyXTnRbbtvoCDDoozu-8" value="function ในการเลือกสินค้าของลูกค้า" style="shape=process;whiteSpace=wrap;html=1;backgroundOutline=1;" vertex="1" parent="mvioNwK95yMqdUQ73LqQ-36">
          <mxGeometry x="215" y="220" width="210" height="90" as="geometry" />
        </mxCell>
        <mxCell id="VMVyXTnRbbtvoCDDoozu-143" style="edgeStyle=orthogonalEdgeStyle;rounded=0;orthogonalLoop=1;jettySize=auto;html=1;entryX=0.5;entryY=0;entryDx=0;entryDy=0;" edge="1" parent="mvioNwK95yMqdUQ73LqQ-36" source="VMVyXTnRbbtvoCDDoozu-138" target="VMVyXTnRbbtvoCDDoozu-142">
          <mxGeometry relative="1" as="geometry" />
        </mxCell>
        <mxCell id="VMVyXTnRbbtvoCDDoozu-138" value="คำนวนจำนวนเงินทั้งหมด ให้เป็รธนบัตรและเหรียญ" style="rounded=0;whiteSpace=wrap;html=1;" vertex="1" parent="mvioNwK95yMqdUQ73LqQ-36">
          <mxGeometry x="230" y="380" width="180" height="60" as="geometry" />
        </mxCell>
        <mxCell id="VMVyXTnRbbtvoCDDoozu-144" style="edgeStyle=orthogonalEdgeStyle;rounded=0;orthogonalLoop=1;jettySize=auto;html=1;exitX=0.5;exitY=1;exitDx=0;exitDy=0;entryX=0.5;entryY=0;entryDx=0;entryDy=0;" edge="1" parent="mvioNwK95yMqdUQ73LqQ-36" source="VMVyXTnRbbtvoCDDoozu-142" target="mvioNwK95yMqdUQ73LqQ-69">
          <mxGeometry relative="1" as="geometry" />
        </mxCell>
        <mxCell id="VMVyXTnRbbtvoCDDoozu-142" value="แสดงจำนวนเงินที่เป็รธนบัตร, เหรียญ, รายการสินค้า" style="shape=parallelogram;perimeter=parallelogramPerimeter;whiteSpace=wrap;html=1;fixedSize=1;" vertex="1" parent="mvioNwK95yMqdUQ73LqQ-36">
          <mxGeometry x="210" y="500" width="210" height="60" as="geometry" />
        </mxCell>
        <mxCell id="mvioNwK95yMqdUQ73LqQ-70" value="&lt;font data-font-src=&quot;https://fonts.googleapis.com/css?family=Sarabun&quot; face=&quot;Sarabun&quot;&gt;โจทย์ปัญหา&lt;/font&gt;" style="swimlane;whiteSpace=wrap;html=1;" parent="WIyWlLk6GJQsqaUBKTNV-1" vertex="1">
          <mxGeometry x="-720" y="320" width="640" height="240" as="geometry" />
        </mxCell>
        <mxCell id="mvioNwK95yMqdUQ73LqQ-71" value="&lt;font data-font-src=&quot;https://fonts.googleapis.com/css?family=Sarabun&quot; face=&quot;Sarabun&quot; style=&quot;font-size: 14px;&quot;&gt;จงเขียน Flowchart เพื่อแสดงขั้นตอนการทำงาน ของเครื่องขายน้ำอัตโนมัติที่ชื่อว่า &quot;ตะพาบลอย&quot;&lt;br&gt;โดยจะต้องมีสินค้าดังนี้&lt;br&gt;&lt;u&gt;ประเภทน้ำ&lt;span style=&quot;white-space: pre;&quot;&gt;&#x9;&lt;/span&gt;&lt;span style=&quot;white-space: pre;&quot;&gt;&#x9;&lt;/span&gt;&lt;span style=&quot;white-space: pre;&quot;&gt;&#x9;&lt;/span&gt;&lt;span style=&quot;white-space: pre;&quot;&gt;&#x9;&lt;/span&gt;&lt;span style=&quot;white-space: pre;&quot;&gt;&#x9;&lt;/span&gt;&lt;span style=&quot;white-space: pre;&quot;&gt;&#x9;&lt;span style=&quot;white-space: pre;&quot;&gt;&#x9;&lt;/span&gt;ข&lt;/span&gt;นม&lt;/u&gt;&lt;br&gt;&lt;span style=&quot;white-space: pre;&quot;&gt;&#x9;&lt;/span&gt;- โค้ก กระป๋องละ 10 บาท&lt;span style=&quot;white-space: pre;&quot;&gt;&#x9;&lt;/span&gt;&lt;span style=&quot;white-space: pre;&quot;&gt;&#x9;&lt;/span&gt;&lt;span style=&quot;white-space: pre;&quot;&gt;&#x9;&lt;/span&gt;&lt;span style=&quot;white-space: pre;&quot;&gt;&#x9;&lt;/span&gt;- เมล็ดทานตะวัน 13 บาท&lt;br&gt;&lt;span style=&quot;white-space: pre;&quot;&gt;&#x9;&lt;/span&gt;- น้ำเขียว กระป๋องละ 12 บาท&lt;span style=&quot;white-space: pre;&quot;&gt;&#x9;&lt;/span&gt;&lt;span style=&quot;white-space: pre;&quot;&gt;&#x9;&lt;/span&gt;&lt;span style=&quot;white-space: pre;&quot;&gt;&#x9;&lt;/span&gt;- ถั่วแปบ 20 บาท&lt;br&gt;&lt;span style=&quot;white-space: pre;&quot;&gt;&#x9;&lt;/span&gt;- อเมริกาโน่ 30 บาท&lt;span style=&quot;white-space: pre;&quot;&gt;&#x9;&lt;/span&gt;&lt;span style=&quot;white-space: pre;&quot;&gt;&#x9;&lt;/span&gt;&lt;span style=&quot;white-space: pre;&quot;&gt;&#x9;&lt;/span&gt;&lt;span style=&quot;white-space: pre;&quot;&gt;&#x9;&lt;/span&gt;&lt;span style=&quot;white-space: pre;&quot;&gt;&#x9;&lt;/span&gt;- จิ้นส้มหมก 15 บาท&lt;br&gt;&lt;span style=&quot;white-space: pre;&quot;&gt;&#x9;&lt;/span&gt;- ลาเต้ หวานเจี๊ยบ 35 บาท&lt;span style=&quot;white-space: pre;&quot;&gt;&#x9;&lt;/span&gt;&lt;br&gt;&lt;br&gt;&lt;u&gt;สิ่งที่ระบบควรจะทำได้&lt;/u&gt;&lt;br&gt;&lt;span style=&quot;white-space: pre;&quot;&gt;&#x9;&lt;/span&gt;- ลูกค้าเลือกสินค้า, ระบบจะต้องรวมยอดขาย และรวมรายการสินค้าทั้งหมดที่ลูกค้าเลือก&lt;br&gt;&lt;span style=&quot;white-space: pre;&quot;&gt;&#x9;&lt;/span&gt;- สรุปยอดว่าเหลือเงินในตู้อีกเท่าไหร่ เหลือเหรียญอะไรบ้าง? ธนบัตรอะไรบ้าง? อย่างละเท่าไหร่?&lt;br&gt;&lt;br&gt;&lt;br&gt;&lt;/font&gt;" style="text;html=1;align=left;verticalAlign=middle;resizable=0;points=[];autosize=1;strokeColor=none;fillColor=none;fontSize=14;" parent="mvioNwK95yMqdUQ73LqQ-70" vertex="1">
          <mxGeometry x="25" y="30" width="580" height="240" as="geometry" />
        </mxCell>
        <mxCell id="VMVyXTnRbbtvoCDDoozu-9" value="function การเลือกสินค้า" style="swimlane;fontFamily=Sarabun;fontSource=https%3A%2F%2Ffonts.googleapis.com%2Fcss%3Ffamily%3DSarabun;" vertex="1" parent="WIyWlLk6GJQsqaUBKTNV-1">
          <mxGeometry x="-720" y="1500" width="640" height="820" as="geometry" />
        </mxCell>
        <mxCell id="VMVyXTnRbbtvoCDDoozu-24" value="" style="edgeStyle=orthogonalEdgeStyle;rounded=0;orthogonalLoop=1;jettySize=auto;html=1;" edge="1" parent="VMVyXTnRbbtvoCDDoozu-9" source="VMVyXTnRbbtvoCDDoozu-11" target="VMVyXTnRbbtvoCDDoozu-20">
          <mxGeometry relative="1" as="geometry" />
        </mxCell>
        <mxCell id="VMVyXTnRbbtvoCDDoozu-11" value="&lt;font data-font-src=&quot;https://fonts.googleapis.com/css?family=Sarabun&quot; face=&quot;Sarabun&quot;&gt;เริ่มต้น&lt;/font&gt;" style="ellipse;whiteSpace=wrap;html=1;" vertex="1" parent="VMVyXTnRbbtvoCDDoozu-9">
          <mxGeometry x="255" y="40" width="130" height="30" as="geometry" />
        </mxCell>
        <mxCell id="VMVyXTnRbbtvoCDDoozu-12" value="&lt;font face=&quot;Sarabun&quot;&gt;สิ้นสุด&lt;/font&gt;" style="ellipse;whiteSpace=wrap;html=1;" vertex="1" parent="VMVyXTnRbbtvoCDDoozu-9">
          <mxGeometry x="255" y="770" width="130" height="30" as="geometry" />
        </mxCell>
        <mxCell id="VMVyXTnRbbtvoCDDoozu-27" style="edgeStyle=orthogonalEdgeStyle;rounded=0;orthogonalLoop=1;jettySize=auto;html=1;entryX=0.5;entryY=0;entryDx=0;entryDy=0;" edge="1" parent="VMVyXTnRbbtvoCDDoozu-9" source="VMVyXTnRbbtvoCDDoozu-20" target="VMVyXTnRbbtvoCDDoozu-25">
          <mxGeometry relative="1" as="geometry" />
        </mxCell>
        <mxCell id="VMVyXTnRbbtvoCDDoozu-28" style="edgeStyle=orthogonalEdgeStyle;rounded=0;orthogonalLoop=1;jettySize=auto;html=1;entryX=0.5;entryY=0;entryDx=0;entryDy=0;" edge="1" parent="VMVyXTnRbbtvoCDDoozu-9" source="VMVyXTnRbbtvoCDDoozu-20" target="VMVyXTnRbbtvoCDDoozu-26">
          <mxGeometry relative="1" as="geometry" />
        </mxCell>
        <mxCell id="VMVyXTnRbbtvoCDDoozu-20" value="&lt;span style=&quot;font-family: Sarabun; font-size: 14px; text-align: left; text-wrap-mode: nowrap;&quot;&gt;water or&amp;nbsp;&lt;/span&gt;&lt;span style=&quot;background-color: rgb(248, 249, 250); color: rgb(31, 31, 31); font-family: inherit; text-align: left;&quot;&gt;&lt;font style=&quot;font-size: 14px;&quot;&gt;snack&lt;/font&gt;&lt;/span&gt;" style="rhombus;whiteSpace=wrap;html=1;" vertex="1" parent="VMVyXTnRbbtvoCDDoozu-9">
          <mxGeometry x="240" y="100" width="160" height="90" as="geometry" />
        </mxCell>
        <mxCell id="VMVyXTnRbbtvoCDDoozu-33" style="edgeStyle=orthogonalEdgeStyle;rounded=0;orthogonalLoop=1;jettySize=auto;html=1;entryX=0;entryY=0.5;entryDx=0;entryDy=0;entryPerimeter=0;" edge="1" parent="VMVyXTnRbbtvoCDDoozu-9" source="VMVyXTnRbbtvoCDDoozu-25" target="VMVyXTnRbbtvoCDDoozu-32">
          <mxGeometry relative="1" as="geometry">
            <mxPoint x="100" y="420" as="targetPoint" />
            <Array as="points">
              <mxPoint x="100" y="400" />
            </Array>
          </mxGeometry>
        </mxCell>
        <mxCell id="VMVyXTnRbbtvoCDDoozu-25" value="function water" style="shape=process;whiteSpace=wrap;html=1;backgroundOutline=1;" vertex="1" parent="VMVyXTnRbbtvoCDDoozu-9">
          <mxGeometry x="40" y="254" width="120" height="60" as="geometry" />
        </mxCell>
        <mxCell id="VMVyXTnRbbtvoCDDoozu-34" style="edgeStyle=orthogonalEdgeStyle;rounded=0;orthogonalLoop=1;jettySize=auto;html=1;exitX=0.5;exitY=1;exitDx=0;exitDy=0;entryX=1;entryY=0.5;entryDx=0;entryDy=0;entryPerimeter=0;" edge="1" parent="VMVyXTnRbbtvoCDDoozu-9" source="VMVyXTnRbbtvoCDDoozu-26" target="VMVyXTnRbbtvoCDDoozu-32">
          <mxGeometry relative="1" as="geometry">
            <mxPoint x="530" y="420" as="targetPoint" />
          </mxGeometry>
        </mxCell>
        <mxCell id="VMVyXTnRbbtvoCDDoozu-26" value="function snack" style="shape=process;whiteSpace=wrap;html=1;backgroundOutline=1;" vertex="1" parent="VMVyXTnRbbtvoCDDoozu-9">
          <mxGeometry x="470" y="254" width="120" height="60" as="geometry" />
        </mxCell>
        <mxCell id="VMVyXTnRbbtvoCDDoozu-35" style="edgeStyle=orthogonalEdgeStyle;rounded=0;orthogonalLoop=1;jettySize=auto;html=1;entryX=0.5;entryY=0;entryDx=0;entryDy=0;" edge="1" parent="VMVyXTnRbbtvoCDDoozu-9" source="VMVyXTnRbbtvoCDDoozu-32" target="VMVyXTnRbbtvoCDDoozu-12">
          <mxGeometry relative="1" as="geometry" />
        </mxCell>
        <mxCell id="VMVyXTnRbbtvoCDDoozu-32" value="" style="strokeWidth=2;html=1;shape=mxgraph.flowchart.start_2;whiteSpace=wrap;" vertex="1" parent="VMVyXTnRbbtvoCDDoozu-9">
          <mxGeometry x="310" y="390" width="20" height="20" as="geometry" />
        </mxCell>
        <mxCell id="VMVyXTnRbbtvoCDDoozu-52" value="function water" style="swimlane;fontFamily=Sarabun;fontSource=https%3A%2F%2Ffonts.googleapis.com%2Fcss%3Ffamily%3DSarabun;" vertex="1" parent="WIyWlLk6GJQsqaUBKTNV-1">
          <mxGeometry x="-720" y="2350" width="640" height="1120" as="geometry" />
        </mxCell>
        <mxCell id="VMVyXTnRbbtvoCDDoozu-73" value="" style="edgeStyle=orthogonalEdgeStyle;rounded=0;orthogonalLoop=1;jettySize=auto;html=1;" edge="1" parent="VMVyXTnRbbtvoCDDoozu-52" source="VMVyXTnRbbtvoCDDoozu-54" target="VMVyXTnRbbtvoCDDoozu-71">
          <mxGeometry relative="1" as="geometry" />
        </mxCell>
        <mxCell id="VMVyXTnRbbtvoCDDoozu-54" value="&lt;font data-font-src=&quot;https://fonts.googleapis.com/css?family=Sarabun&quot; face=&quot;Sarabun&quot;&gt;เริ่มต้น&lt;/font&gt;" style="ellipse;whiteSpace=wrap;html=1;" vertex="1" parent="VMVyXTnRbbtvoCDDoozu-52">
          <mxGeometry x="255" y="40" width="130" height="30" as="geometry" />
        </mxCell>
        <mxCell id="VMVyXTnRbbtvoCDDoozu-55" value="&lt;font face=&quot;Sarabun&quot;&gt;สิ้นสุด&lt;/font&gt;" style="ellipse;whiteSpace=wrap;html=1;" vertex="1" parent="VMVyXTnRbbtvoCDDoozu-52">
          <mxGeometry x="255" y="1010" width="130" height="30" as="geometry" />
        </mxCell>
        <mxCell id="VMVyXTnRbbtvoCDDoozu-69" style="edgeStyle=orthogonalEdgeStyle;rounded=0;orthogonalLoop=1;jettySize=auto;html=1;entryX=0.5;entryY=0;entryDx=0;entryDy=0;" edge="1" parent="VMVyXTnRbbtvoCDDoozu-52" source="VMVyXTnRbbtvoCDDoozu-58" target="VMVyXTnRbbtvoCDDoozu-66">
          <mxGeometry relative="1" as="geometry">
            <Array as="points">
              <mxPoint x="280" y="273" />
            </Array>
          </mxGeometry>
        </mxCell>
        <mxCell id="VMVyXTnRbbtvoCDDoozu-75" value="false" style="edgeLabel;html=1;align=center;verticalAlign=middle;resizable=0;points=[];" vertex="1" connectable="0" parent="VMVyXTnRbbtvoCDDoozu-69">
          <mxGeometry x="-0.35" y="-2" relative="1" as="geometry">
            <mxPoint as="offset" />
          </mxGeometry>
        </mxCell>
        <mxCell id="VMVyXTnRbbtvoCDDoozu-70" style="edgeStyle=orthogonalEdgeStyle;rounded=0;orthogonalLoop=1;jettySize=auto;html=1;entryX=0.5;entryY=0;entryDx=0;entryDy=0;" edge="1" parent="VMVyXTnRbbtvoCDDoozu-52" source="VMVyXTnRbbtvoCDDoozu-79" target="VMVyXTnRbbtvoCDDoozu-77">
          <mxGeometry relative="1" as="geometry">
            <mxPoint x="110" y="430" as="targetPoint" />
          </mxGeometry>
        </mxCell>
        <mxCell id="VMVyXTnRbbtvoCDDoozu-58" value="&lt;span style=&quot;font-family: Sarabun; font-size: 14px; text-align: left; text-wrap-mode: nowrap;&quot;&gt;โค้ก&amp;nbsp;&lt;/span&gt;" style="rhombus;whiteSpace=wrap;html=1;" vertex="1" parent="VMVyXTnRbbtvoCDDoozu-52">
          <mxGeometry x="30" y="233" width="160" height="90" as="geometry" />
        </mxCell>
        <mxCell id="VMVyXTnRbbtvoCDDoozu-78" style="edgeStyle=orthogonalEdgeStyle;rounded=0;orthogonalLoop=1;jettySize=auto;html=1;entryX=1;entryY=0.5;entryDx=0;entryDy=0;entryPerimeter=0;" edge="1" parent="VMVyXTnRbbtvoCDDoozu-52" source="VMVyXTnRbbtvoCDDoozu-66" target="VMVyXTnRbbtvoCDDoozu-79">
          <mxGeometry relative="1" as="geometry">
            <mxPoint x="150" y="520" as="targetPoint" />
            <Array as="points">
              <mxPoint x="200" y="450" />
            </Array>
          </mxGeometry>
        </mxCell>
        <mxCell id="VMVyXTnRbbtvoCDDoozu-82" value="Text" style="edgeLabel;html=1;align=center;verticalAlign=middle;resizable=0;points=[];" vertex="1" connectable="0" parent="VMVyXTnRbbtvoCDDoozu-78">
          <mxGeometry x="0.4844" y="-4" relative="1" as="geometry">
            <mxPoint as="offset" />
          </mxGeometry>
        </mxCell>
        <mxCell id="VMVyXTnRbbtvoCDDoozu-84" value="true" style="edgeLabel;html=1;align=center;verticalAlign=middle;resizable=0;points=[];" vertex="1" connectable="0" parent="VMVyXTnRbbtvoCDDoozu-78">
          <mxGeometry x="0.4933" y="-3" relative="1" as="geometry">
            <mxPoint as="offset" />
          </mxGeometry>
        </mxCell>
        <mxCell id="VMVyXTnRbbtvoCDDoozu-88" style="edgeStyle=orthogonalEdgeStyle;rounded=0;orthogonalLoop=1;jettySize=auto;html=1;exitX=1;exitY=0.5;exitDx=0;exitDy=0;entryX=0.5;entryY=0;entryDx=0;entryDy=0;" edge="1" parent="VMVyXTnRbbtvoCDDoozu-52" source="VMVyXTnRbbtvoCDDoozu-66" target="VMVyXTnRbbtvoCDDoozu-85">
          <mxGeometry relative="1" as="geometry">
            <Array as="points">
              <mxPoint x="430" y="355" />
            </Array>
          </mxGeometry>
        </mxCell>
        <mxCell id="VMVyXTnRbbtvoCDDoozu-89" value="false" style="edgeLabel;html=1;align=center;verticalAlign=middle;resizable=0;points=[];" vertex="1" connectable="0" parent="VMVyXTnRbbtvoCDDoozu-88">
          <mxGeometry x="-0.2235" y="1" relative="1" as="geometry">
            <mxPoint as="offset" />
          </mxGeometry>
        </mxCell>
        <mxCell id="VMVyXTnRbbtvoCDDoozu-66" value="&lt;span style=&quot;font-family: Sarabun; font-size: 14px; text-align: left; text-wrap-mode: nowrap;&quot;&gt;น้ำเขียว&lt;/span&gt;" style="rhombus;whiteSpace=wrap;html=1;" vertex="1" parent="VMVyXTnRbbtvoCDDoozu-52">
          <mxGeometry x="200" y="310" width="160" height="90" as="geometry" />
        </mxCell>
        <mxCell id="VMVyXTnRbbtvoCDDoozu-74" style="edgeStyle=orthogonalEdgeStyle;rounded=0;orthogonalLoop=1;jettySize=auto;html=1;exitX=0;exitY=0.5;exitDx=0;exitDy=0;entryX=0.5;entryY=0;entryDx=0;entryDy=0;" edge="1" parent="VMVyXTnRbbtvoCDDoozu-52" source="VMVyXTnRbbtvoCDDoozu-93" target="VMVyXTnRbbtvoCDDoozu-58">
          <mxGeometry relative="1" as="geometry" />
        </mxCell>
        <mxCell id="VMVyXTnRbbtvoCDDoozu-71" value="แสดงรายการาสินค้า" style="rounded=0;whiteSpace=wrap;html=1;" vertex="1" parent="VMVyXTnRbbtvoCDDoozu-52">
          <mxGeometry x="260" y="140" width="120" height="60" as="geometry" />
        </mxCell>
        <mxCell id="VMVyXTnRbbtvoCDDoozu-101" style="edgeStyle=orthogonalEdgeStyle;rounded=0;orthogonalLoop=1;jettySize=auto;html=1;entryX=0.5;entryY=0;entryDx=0;entryDy=0;exitX=1;exitY=0.5;exitDx=0;exitDy=0;" edge="1" parent="VMVyXTnRbbtvoCDDoozu-52" source="VMVyXTnRbbtvoCDDoozu-140" target="VMVyXTnRbbtvoCDDoozu-55">
          <mxGeometry relative="1" as="geometry">
            <Array as="points">
              <mxPoint x="320" y="770" />
            </Array>
          </mxGeometry>
        </mxCell>
        <mxCell id="VMVyXTnRbbtvoCDDoozu-141" value="" style="edgeStyle=orthogonalEdgeStyle;rounded=0;orthogonalLoop=1;jettySize=auto;html=1;" edge="1" parent="VMVyXTnRbbtvoCDDoozu-52" source="VMVyXTnRbbtvoCDDoozu-77" target="VMVyXTnRbbtvoCDDoozu-140">
          <mxGeometry relative="1" as="geometry" />
        </mxCell>
        <mxCell id="VMVyXTnRbbtvoCDDoozu-77" value="คำนวนเงิน" style="rounded=0;whiteSpace=wrap;html=1;" vertex="1" parent="VMVyXTnRbbtvoCDDoozu-52">
          <mxGeometry x="50" y="610" width="120" height="60" as="geometry" />
        </mxCell>
        <mxCell id="VMVyXTnRbbtvoCDDoozu-79" value="" style="strokeWidth=2;html=1;shape=mxgraph.flowchart.start_2;whiteSpace=wrap;" vertex="1" parent="VMVyXTnRbbtvoCDDoozu-52">
          <mxGeometry x="100" y="440" width="20" height="20" as="geometry" />
        </mxCell>
        <mxCell id="VMVyXTnRbbtvoCDDoozu-80" value="" style="edgeStyle=orthogonalEdgeStyle;rounded=0;orthogonalLoop=1;jettySize=auto;html=1;entryX=0.5;entryY=0;entryDx=0;entryDy=0;" edge="1" parent="VMVyXTnRbbtvoCDDoozu-52" source="VMVyXTnRbbtvoCDDoozu-58" target="VMVyXTnRbbtvoCDDoozu-79">
          <mxGeometry relative="1" as="geometry">
            <mxPoint x="-610" y="2890" as="targetPoint" />
            <mxPoint x="-610" y="2683" as="sourcePoint" />
          </mxGeometry>
        </mxCell>
        <mxCell id="VMVyXTnRbbtvoCDDoozu-81" value="true" style="edgeLabel;html=1;align=center;verticalAlign=middle;resizable=0;points=[];" vertex="1" connectable="0" parent="VMVyXTnRbbtvoCDDoozu-80">
          <mxGeometry x="-0.052" y="3" relative="1" as="geometry">
            <mxPoint as="offset" />
          </mxGeometry>
        </mxCell>
        <mxCell id="VMVyXTnRbbtvoCDDoozu-90" style="edgeStyle=orthogonalEdgeStyle;rounded=0;orthogonalLoop=1;jettySize=auto;html=1;exitX=0.5;exitY=1;exitDx=0;exitDy=0;" edge="1" parent="VMVyXTnRbbtvoCDDoozu-52" source="VMVyXTnRbbtvoCDDoozu-85">
          <mxGeometry relative="1" as="geometry">
            <mxPoint x="200" y="450" as="targetPoint" />
            <Array as="points">
              <mxPoint x="276" y="460" />
              <mxPoint x="276" y="451" />
            </Array>
          </mxGeometry>
        </mxCell>
        <mxCell id="VMVyXTnRbbtvoCDDoozu-91" value="true" style="edgeLabel;html=1;align=center;verticalAlign=middle;resizable=0;points=[];" vertex="1" connectable="0" parent="VMVyXTnRbbtvoCDDoozu-90">
          <mxGeometry x="-0.3138" y="1" relative="1" as="geometry">
            <mxPoint as="offset" />
          </mxGeometry>
        </mxCell>
        <mxCell id="VMVyXTnRbbtvoCDDoozu-95" style="edgeStyle=orthogonalEdgeStyle;rounded=0;orthogonalLoop=1;jettySize=auto;html=1;entryX=0.5;entryY=0;entryDx=0;entryDy=0;" edge="1" parent="VMVyXTnRbbtvoCDDoozu-52" source="VMVyXTnRbbtvoCDDoozu-85" target="VMVyXTnRbbtvoCDDoozu-92">
          <mxGeometry relative="1" as="geometry">
            <Array as="points">
              <mxPoint x="550" y="415" />
            </Array>
          </mxGeometry>
        </mxCell>
        <mxCell id="VMVyXTnRbbtvoCDDoozu-96" value="false&lt;div&gt;&lt;br&gt;&lt;/div&gt;" style="edgeLabel;html=1;align=center;verticalAlign=middle;resizable=0;points=[];" vertex="1" connectable="0" parent="VMVyXTnRbbtvoCDDoozu-95">
          <mxGeometry x="-0.3455" y="3" relative="1" as="geometry">
            <mxPoint as="offset" />
          </mxGeometry>
        </mxCell>
        <mxCell id="VMVyXTnRbbtvoCDDoozu-85" value="&lt;span style=&quot;font-family: Sarabun; font-size: 14px; text-align: left; text-wrap-mode: nowrap;&quot;&gt;อเมริกาโน่&lt;/span&gt;" style="rhombus;whiteSpace=wrap;html=1;" vertex="1" parent="VMVyXTnRbbtvoCDDoozu-52">
          <mxGeometry x="350" y="370" width="160" height="90" as="geometry" />
        </mxCell>
        <mxCell id="VMVyXTnRbbtvoCDDoozu-92" value="&lt;span style=&quot;font-family: Sarabun; font-size: 14px; text-align: left; text-wrap-mode: nowrap;&quot;&gt;ลาเต้&lt;/span&gt;" style="rhombus;whiteSpace=wrap;html=1;" vertex="1" parent="VMVyXTnRbbtvoCDDoozu-52">
          <mxGeometry x="470" y="430" width="160" height="90" as="geometry" />
        </mxCell>
        <mxCell id="VMVyXTnRbbtvoCDDoozu-93" value="" style="strokeWidth=2;html=1;shape=mxgraph.flowchart.start_2;whiteSpace=wrap;" vertex="1" parent="VMVyXTnRbbtvoCDDoozu-52">
          <mxGeometry x="100" y="190" width="20" height="20" as="geometry" />
        </mxCell>
        <mxCell id="VMVyXTnRbbtvoCDDoozu-94" value="" style="edgeStyle=orthogonalEdgeStyle;rounded=0;orthogonalLoop=1;jettySize=auto;html=1;exitX=0;exitY=0.5;exitDx=0;exitDy=0;entryX=0.5;entryY=0;entryDx=0;entryDy=0;" edge="1" parent="VMVyXTnRbbtvoCDDoozu-52" source="VMVyXTnRbbtvoCDDoozu-71" target="VMVyXTnRbbtvoCDDoozu-93">
          <mxGeometry relative="1" as="geometry">
            <mxPoint x="-460" y="2550" as="sourcePoint" />
            <mxPoint x="-610" y="2593" as="targetPoint" />
          </mxGeometry>
        </mxCell>
        <mxCell id="VMVyXTnRbbtvoCDDoozu-97" style="edgeStyle=orthogonalEdgeStyle;rounded=0;orthogonalLoop=1;jettySize=auto;html=1;entryX=1;entryY=0.5;entryDx=0;entryDy=0;entryPerimeter=0;" edge="1" parent="VMVyXTnRbbtvoCDDoozu-52" source="VMVyXTnRbbtvoCDDoozu-92" target="VMVyXTnRbbtvoCDDoozu-93">
          <mxGeometry relative="1" as="geometry">
            <Array as="points">
              <mxPoint x="550" y="220" />
              <mxPoint x="120" y="220" />
            </Array>
          </mxGeometry>
        </mxCell>
        <mxCell id="VMVyXTnRbbtvoCDDoozu-98" value="false" style="edgeLabel;html=1;align=center;verticalAlign=middle;resizable=0;points=[];" vertex="1" connectable="0" parent="VMVyXTnRbbtvoCDDoozu-97">
          <mxGeometry x="0.0515" y="-1" relative="1" as="geometry">
            <mxPoint as="offset" />
          </mxGeometry>
        </mxCell>
        <mxCell id="VMVyXTnRbbtvoCDDoozu-99" style="edgeStyle=orthogonalEdgeStyle;rounded=0;orthogonalLoop=1;jettySize=auto;html=1;entryX=0.855;entryY=0.855;entryDx=0;entryDy=0;entryPerimeter=0;" edge="1" parent="VMVyXTnRbbtvoCDDoozu-52" source="VMVyXTnRbbtvoCDDoozu-92" target="VMVyXTnRbbtvoCDDoozu-79">
          <mxGeometry relative="1" as="geometry" />
        </mxCell>
        <mxCell id="VMVyXTnRbbtvoCDDoozu-100" value="true" style="edgeLabel;html=1;align=center;verticalAlign=middle;resizable=0;points=[];" vertex="1" connectable="0" parent="VMVyXTnRbbtvoCDDoozu-99">
          <mxGeometry x="-0.5577" y="-3" relative="1" as="geometry">
            <mxPoint as="offset" />
          </mxGeometry>
        </mxCell>
        <mxCell id="VMVyXTnRbbtvoCDDoozu-140" value="แสดงรายการและจำนวนเงิน" style="shape=parallelogram;perimeter=parallelogramPerimeter;whiteSpace=wrap;html=1;fixedSize=1;" vertex="1" parent="VMVyXTnRbbtvoCDDoozu-52">
          <mxGeometry x="30" y="740" width="160" height="60" as="geometry" />
        </mxCell>
        <mxCell id="VMVyXTnRbbtvoCDDoozu-102" value="function snack" style="swimlane;fontFamily=Sarabun;fontSource=https%3A%2F%2Ffonts.googleapis.com%2Fcss%3Ffamily%3DSarabun;" vertex="1" parent="WIyWlLk6GJQsqaUBKTNV-1">
          <mxGeometry x="-720" y="3507" width="640" height="1120" as="geometry" />
        </mxCell>
        <mxCell id="VMVyXTnRbbtvoCDDoozu-103" value="" style="edgeStyle=orthogonalEdgeStyle;rounded=0;orthogonalLoop=1;jettySize=auto;html=1;" edge="1" parent="VMVyXTnRbbtvoCDDoozu-102" source="VMVyXTnRbbtvoCDDoozu-104" target="VMVyXTnRbbtvoCDDoozu-117">
          <mxGeometry relative="1" as="geometry" />
        </mxCell>
        <mxCell id="VMVyXTnRbbtvoCDDoozu-104" value="&lt;font data-font-src=&quot;https://fonts.googleapis.com/css?family=Sarabun&quot; face=&quot;Sarabun&quot;&gt;เริ่มต้น&lt;/font&gt;" style="ellipse;whiteSpace=wrap;html=1;" vertex="1" parent="VMVyXTnRbbtvoCDDoozu-102">
          <mxGeometry x="255" y="40" width="130" height="30" as="geometry" />
        </mxCell>
        <mxCell id="VMVyXTnRbbtvoCDDoozu-105" value="&lt;font face=&quot;Sarabun&quot;&gt;สิ้นสุด&lt;/font&gt;" style="ellipse;whiteSpace=wrap;html=1;" vertex="1" parent="VMVyXTnRbbtvoCDDoozu-102">
          <mxGeometry x="255" y="1010" width="130" height="30" as="geometry" />
        </mxCell>
        <mxCell id="VMVyXTnRbbtvoCDDoozu-106" style="edgeStyle=orthogonalEdgeStyle;rounded=0;orthogonalLoop=1;jettySize=auto;html=1;entryX=0.5;entryY=0;entryDx=0;entryDy=0;" edge="1" parent="VMVyXTnRbbtvoCDDoozu-102" source="VMVyXTnRbbtvoCDDoozu-109" target="VMVyXTnRbbtvoCDDoozu-115">
          <mxGeometry relative="1" as="geometry">
            <Array as="points">
              <mxPoint x="280" y="273" />
            </Array>
          </mxGeometry>
        </mxCell>
        <mxCell id="VMVyXTnRbbtvoCDDoozu-107" value="false" style="edgeLabel;html=1;align=center;verticalAlign=middle;resizable=0;points=[];" vertex="1" connectable="0" parent="VMVyXTnRbbtvoCDDoozu-106">
          <mxGeometry x="-0.35" y="-2" relative="1" as="geometry">
            <mxPoint as="offset" />
          </mxGeometry>
        </mxCell>
        <mxCell id="VMVyXTnRbbtvoCDDoozu-108" style="edgeStyle=orthogonalEdgeStyle;rounded=0;orthogonalLoop=1;jettySize=auto;html=1;entryX=0.563;entryY=-0.033;entryDx=0;entryDy=0;entryPerimeter=0;" edge="1" parent="VMVyXTnRbbtvoCDDoozu-102" source="VMVyXTnRbbtvoCDDoozu-135" target="VMVyXTnRbbtvoCDDoozu-137">
          <mxGeometry relative="1" as="geometry">
            <mxPoint x="110" y="723" as="targetPoint" />
          </mxGeometry>
        </mxCell>
        <mxCell id="VMVyXTnRbbtvoCDDoozu-109" value="&lt;span style=&quot;font-family: Sarabun; font-size: 14px; text-align: left; text-wrap-mode: nowrap;&quot;&gt;เมล็ดทานตะวัน&lt;/span&gt;" style="rhombus;whiteSpace=wrap;html=1;" vertex="1" parent="VMVyXTnRbbtvoCDDoozu-102">
          <mxGeometry x="30" y="233" width="160" height="90" as="geometry" />
        </mxCell>
        <mxCell id="VMVyXTnRbbtvoCDDoozu-110" style="edgeStyle=orthogonalEdgeStyle;rounded=0;orthogonalLoop=1;jettySize=auto;html=1;entryX=1;entryY=0.5;entryDx=0;entryDy=0;entryPerimeter=0;" edge="1" parent="VMVyXTnRbbtvoCDDoozu-102" source="VMVyXTnRbbtvoCDDoozu-115" target="VMVyXTnRbbtvoCDDoozu-120">
          <mxGeometry relative="1" as="geometry">
            <mxPoint x="150" y="520" as="targetPoint" />
            <Array as="points">
              <mxPoint x="200" y="450" />
            </Array>
          </mxGeometry>
        </mxCell>
        <mxCell id="VMVyXTnRbbtvoCDDoozu-111" value="Text" style="edgeLabel;html=1;align=center;verticalAlign=middle;resizable=0;points=[];" vertex="1" connectable="0" parent="VMVyXTnRbbtvoCDDoozu-110">
          <mxGeometry x="0.4844" y="-4" relative="1" as="geometry">
            <mxPoint as="offset" />
          </mxGeometry>
        </mxCell>
        <mxCell id="VMVyXTnRbbtvoCDDoozu-112" value="true" style="edgeLabel;html=1;align=center;verticalAlign=middle;resizable=0;points=[];" vertex="1" connectable="0" parent="VMVyXTnRbbtvoCDDoozu-110">
          <mxGeometry x="0.4933" y="-3" relative="1" as="geometry">
            <mxPoint as="offset" />
          </mxGeometry>
        </mxCell>
        <mxCell id="VMVyXTnRbbtvoCDDoozu-113" style="edgeStyle=orthogonalEdgeStyle;rounded=0;orthogonalLoop=1;jettySize=auto;html=1;exitX=1;exitY=0.5;exitDx=0;exitDy=0;entryX=0.5;entryY=0;entryDx=0;entryDy=0;" edge="1" parent="VMVyXTnRbbtvoCDDoozu-102" source="VMVyXTnRbbtvoCDDoozu-115" target="VMVyXTnRbbtvoCDDoozu-127">
          <mxGeometry relative="1" as="geometry">
            <Array as="points">
              <mxPoint x="430" y="355" />
            </Array>
          </mxGeometry>
        </mxCell>
        <mxCell id="VMVyXTnRbbtvoCDDoozu-114" value="false" style="edgeLabel;html=1;align=center;verticalAlign=middle;resizable=0;points=[];" vertex="1" connectable="0" parent="VMVyXTnRbbtvoCDDoozu-113">
          <mxGeometry x="-0.2235" y="1" relative="1" as="geometry">
            <mxPoint as="offset" />
          </mxGeometry>
        </mxCell>
        <mxCell id="VMVyXTnRbbtvoCDDoozu-115" value="&lt;span style=&quot;font-family: Sarabun; font-size: 14px; text-align: left; text-wrap-mode: nowrap;&quot;&gt;ถั่วแปบ&lt;/span&gt;" style="rhombus;whiteSpace=wrap;html=1;" vertex="1" parent="VMVyXTnRbbtvoCDDoozu-102">
          <mxGeometry x="200" y="310" width="160" height="90" as="geometry" />
        </mxCell>
        <mxCell id="VMVyXTnRbbtvoCDDoozu-116" style="edgeStyle=orthogonalEdgeStyle;rounded=0;orthogonalLoop=1;jettySize=auto;html=1;exitX=0;exitY=0.5;exitDx=0;exitDy=0;entryX=0.5;entryY=0;entryDx=0;entryDy=0;" edge="1" parent="VMVyXTnRbbtvoCDDoozu-102" source="VMVyXTnRbbtvoCDDoozu-129" target="VMVyXTnRbbtvoCDDoozu-109">
          <mxGeometry relative="1" as="geometry" />
        </mxCell>
        <mxCell id="VMVyXTnRbbtvoCDDoozu-117" value="แสดงรายการาสินค้า" style="rounded=0;whiteSpace=wrap;html=1;" vertex="1" parent="VMVyXTnRbbtvoCDDoozu-102">
          <mxGeometry x="260" y="140" width="120" height="60" as="geometry" />
        </mxCell>
        <mxCell id="VMVyXTnRbbtvoCDDoozu-118" style="edgeStyle=orthogonalEdgeStyle;rounded=0;orthogonalLoop=1;jettySize=auto;html=1;entryX=0.5;entryY=0;entryDx=0;entryDy=0;" edge="1" parent="VMVyXTnRbbtvoCDDoozu-102" target="VMVyXTnRbbtvoCDDoozu-105">
          <mxGeometry relative="1" as="geometry">
            <mxPoint x="170" y="760" as="sourcePoint" />
          </mxGeometry>
        </mxCell>
        <mxCell id="VMVyXTnRbbtvoCDDoozu-120" value="" style="strokeWidth=2;html=1;shape=mxgraph.flowchart.start_2;whiteSpace=wrap;" vertex="1" parent="VMVyXTnRbbtvoCDDoozu-102">
          <mxGeometry x="100" y="440" width="20" height="20" as="geometry" />
        </mxCell>
        <mxCell id="VMVyXTnRbbtvoCDDoozu-121" value="" style="edgeStyle=orthogonalEdgeStyle;rounded=0;orthogonalLoop=1;jettySize=auto;html=1;entryX=0.5;entryY=0;entryDx=0;entryDy=0;" edge="1" parent="VMVyXTnRbbtvoCDDoozu-102" source="VMVyXTnRbbtvoCDDoozu-109" target="VMVyXTnRbbtvoCDDoozu-120">
          <mxGeometry relative="1" as="geometry">
            <mxPoint x="-610" y="2890" as="targetPoint" />
            <mxPoint x="-610" y="2683" as="sourcePoint" />
          </mxGeometry>
        </mxCell>
        <mxCell id="VMVyXTnRbbtvoCDDoozu-122" value="true" style="edgeLabel;html=1;align=center;verticalAlign=middle;resizable=0;points=[];" vertex="1" connectable="0" parent="VMVyXTnRbbtvoCDDoozu-121">
          <mxGeometry x="-0.052" y="3" relative="1" as="geometry">
            <mxPoint as="offset" />
          </mxGeometry>
        </mxCell>
        <mxCell id="VMVyXTnRbbtvoCDDoozu-123" style="edgeStyle=orthogonalEdgeStyle;rounded=0;orthogonalLoop=1;jettySize=auto;html=1;exitX=0.5;exitY=1;exitDx=0;exitDy=0;" edge="1" parent="VMVyXTnRbbtvoCDDoozu-102" source="VMVyXTnRbbtvoCDDoozu-127">
          <mxGeometry relative="1" as="geometry">
            <mxPoint x="200" y="450" as="targetPoint" />
            <Array as="points">
              <mxPoint x="276" y="460" />
              <mxPoint x="276" y="451" />
            </Array>
          </mxGeometry>
        </mxCell>
        <mxCell id="VMVyXTnRbbtvoCDDoozu-124" value="true" style="edgeLabel;html=1;align=center;verticalAlign=middle;resizable=0;points=[];" vertex="1" connectable="0" parent="VMVyXTnRbbtvoCDDoozu-123">
          <mxGeometry x="-0.3138" y="1" relative="1" as="geometry">
            <mxPoint as="offset" />
          </mxGeometry>
        </mxCell>
        <mxCell id="VMVyXTnRbbtvoCDDoozu-125" style="edgeStyle=orthogonalEdgeStyle;rounded=0;orthogonalLoop=1;jettySize=auto;html=1;entryX=1;entryY=0.5;entryDx=0;entryDy=0;entryPerimeter=0;" edge="1" parent="VMVyXTnRbbtvoCDDoozu-102" source="VMVyXTnRbbtvoCDDoozu-127" target="VMVyXTnRbbtvoCDDoozu-129">
          <mxGeometry relative="1" as="geometry">
            <Array as="points">
              <mxPoint x="550" y="415" />
              <mxPoint x="550" y="200" />
            </Array>
            <mxPoint x="550" y="430" as="targetPoint" />
          </mxGeometry>
        </mxCell>
        <mxCell id="VMVyXTnRbbtvoCDDoozu-126" value="false&lt;div&gt;&lt;br&gt;&lt;/div&gt;" style="edgeLabel;html=1;align=center;verticalAlign=middle;resizable=0;points=[];" vertex="1" connectable="0" parent="VMVyXTnRbbtvoCDDoozu-125">
          <mxGeometry x="-0.3455" y="3" relative="1" as="geometry">
            <mxPoint as="offset" />
          </mxGeometry>
        </mxCell>
        <mxCell id="VMVyXTnRbbtvoCDDoozu-127" value="&lt;span style=&quot;font-family: Sarabun; font-size: 14px; text-align: left; text-wrap-mode: nowrap;&quot;&gt;จิ้นส้มหม&lt;/span&gt;" style="rhombus;whiteSpace=wrap;html=1;" vertex="1" parent="VMVyXTnRbbtvoCDDoozu-102">
          <mxGeometry x="350" y="370" width="160" height="90" as="geometry" />
        </mxCell>
        <mxCell id="VMVyXTnRbbtvoCDDoozu-129" value="" style="strokeWidth=2;html=1;shape=mxgraph.flowchart.start_2;whiteSpace=wrap;" vertex="1" parent="VMVyXTnRbbtvoCDDoozu-102">
          <mxGeometry x="100" y="190" width="20" height="20" as="geometry" />
        </mxCell>
        <mxCell id="VMVyXTnRbbtvoCDDoozu-130" value="" style="edgeStyle=orthogonalEdgeStyle;rounded=0;orthogonalLoop=1;jettySize=auto;html=1;exitX=0;exitY=0.5;exitDx=0;exitDy=0;entryX=0.5;entryY=0;entryDx=0;entryDy=0;" edge="1" parent="VMVyXTnRbbtvoCDDoozu-102" source="VMVyXTnRbbtvoCDDoozu-117" target="VMVyXTnRbbtvoCDDoozu-129">
          <mxGeometry relative="1" as="geometry">
            <mxPoint x="-460" y="2550" as="sourcePoint" />
            <mxPoint x="-610" y="2593" as="targetPoint" />
          </mxGeometry>
        </mxCell>
        <mxCell id="VMVyXTnRbbtvoCDDoozu-136" value="" style="edgeStyle=orthogonalEdgeStyle;rounded=0;orthogonalLoop=1;jettySize=auto;html=1;entryX=0.5;entryY=0;entryDx=0;entryDy=0;" edge="1" parent="VMVyXTnRbbtvoCDDoozu-102" source="VMVyXTnRbbtvoCDDoozu-120" target="VMVyXTnRbbtvoCDDoozu-135">
          <mxGeometry relative="1" as="geometry">
            <mxPoint x="-610" y="4237" as="targetPoint" />
            <mxPoint x="-610" y="3967" as="sourcePoint" />
          </mxGeometry>
        </mxCell>
        <mxCell id="VMVyXTnRbbtvoCDDoozu-135" value="คำนวนเงิน" style="rounded=0;whiteSpace=wrap;html=1;" vertex="1" parent="VMVyXTnRbbtvoCDDoozu-102">
          <mxGeometry x="50" y="573" width="120" height="60" as="geometry" />
        </mxCell>
        <mxCell id="VMVyXTnRbbtvoCDDoozu-137" value="แสดงรายการและจำนวนเงิน" style="shape=parallelogram;perimeter=parallelogramPerimeter;whiteSpace=wrap;html=1;fixedSize=1;" vertex="1" parent="VMVyXTnRbbtvoCDDoozu-102">
          <mxGeometry x="20" y="733" width="160" height="60" as="geometry" />
        </mxCell>
      </root>
    </mxGraphModel>
  </diagram>
</mxfile>
